<svg xmlns="http://www.w3.org/2000/svg" width="12" height="12">
    <path fill="#F00" fill-rule="evenodd" d="M5.967 7.178c-.059.086-.097.161-.152.217-1.434 1.436-2.87 2.869-4.302 4.306-.255.255-.548.36-.895.263a.852.852 0 0 1-.429-1.358c.05-.062.108-.118.165-.174C1.769 9.016 3.185 7.6 4.603 6.186c.055-.056.13-.094.195-.141l.02-.099c-.069-.041-.151-.069-.206-.124a1953.728 1953.728 0 0 1-4.32-4.317C-.206 1.006-.04.231.607.039c.345-.102.642-.004.897.252.964.968 1.931 1.932 2.897 2.898l1.592 1.595c.064-.06.121-.112.176-.167C7.608 3.178 9.049 1.74 10.486.299c.249-.25.537-.355.876-.27a.853.853 0 0 1 .471 1.332c-.051.069-.113.131-.174.193-1.42 1.421-2.84 2.841-4.263 4.26-.056.056-.13.094-.195.141l-.02.099c.069.041.151.069.206.124a2197.86 2197.86 0 0 1 4.32 4.317c.498.498.331 1.273-.316 1.465-.345.103-.642.004-.896-.251-.974-.977-1.95-1.951-2.926-2.927L5.967 7.178z"/>
</svg>
